<svg xmlns="http://www.w3.org/2000/svg" viewBox="0 0 154.8 83.98"><defs><style>.cls-1{fill:#fff;}.cls-2,.cls-3,.cls-4,.cls-5,.cls-6{opacity:0.8;}.cls-3{fill:#63e4f1;}.cls-4{fill:#a0eff6;}.cls-5{fill:#bdf4f9;}.cls-6{fill:#ddf9fc;}</style></defs><title>Asset 9</title><g id="Layer_2" data-name="Layer 2"><g id="cloud2"><g id="cloud2-2" data-name="cloud2"><path class="cls-1" d="M5.65,28.93c.63-2.66,4-16.76,14-19.33,10.18-2.62,21,8.32,22.67,10,5.51,5.57,5.8,9.56,9.33,10,5.47.68,7.63-8.53,16.67-15.33,12-9,31.36-10.29,38-2.67,5.23,6,.45,15.1,4.67,17.33,6.07,3.22,16.57-15.29,28-12.67,6.64,1.53,10.8,9.55,12,15.33.28,1.34,2.06,10.6-3.33,16.67-4.77,5.36-10.3,2.79-14,8-3.45,4.87.47,8.4-2.67,14.67s-11.23,10.69-18.67,10a14.9,14.9,0,0,1-8.67-3.33c-5-4.36-3.58-10.44-6.67-11.33s-4.69,4.67-12,8c-5,2.26-9.49,2.13-14,2-6.69-.19-12.11-.34-15.33-4-4-4.58-1.79-11.42-4-12S48.27,66,43,68.93c-8.68,4.79-21.31-3.31-23.33-4.67A33.85,33.85,0,0,1,7,48.26,33.29,33.29,0,0,1,5.65,28.93Z"/><g class="cls-2"><g class="cls-2"><path class="cls-3" d="M49.81,21.54l.5.64.24.32.08.08.34.36a2.45,2.45,0,0,0,.72.55A1.32,1.32,0,0,0,53.22,23a3.22,3.22,0,0,0,.41-.66l.15-.33.74-1.11c1-1.54,2.14-3.25,3.44-4.94A44,44,0,0,1,62.32,11a38.47,38.47,0,0,1,5.36-4.29A44,44,0,0,1,80.23,1.07,32.69,32.69,0,0,1,88.53,0a25.88,25.88,0,0,1,5.6.71c1.64.38,3.16.82,5,1.35a23,23,0,0,1,8.1,3.86,15.39,15.39,0,0,1,3.46,3.67,14.83,14.83,0,0,1,2,4.61,19.85,19.85,0,0,1,.58,4.45v.9c0,.05,0,0,0,0l0,.36-.08.75a9.66,9.66,0,0,0-.07,1.6,1.82,1.82,0,0,0,.68,1.45,1.72,1.72,0,0,0,1.44.18,5.77,5.77,0,0,0,1.39-.63c.45-.27.9-.58,1.35-.9l.35-.26.65-.51,1.33-1c1.8-1.4,3.68-2.83,5.76-4.15a24.07,24.07,0,0,1,7.15-3.18,13.78,13.78,0,0,1,8.61.62A15.66,15.66,0,0,1,145.47,16a20.41,20.41,0,0,1,2.88,2.84,27.28,27.28,0,0,1,4,6.56,28.53,28.53,0,0,1,2.16,7.36,26.93,26.93,0,0,1-.22,9.22,18.17,18.17,0,0,1-4.34,8.73,14.44,14.44,0,0,1-4.1,3.13,22.35,22.35,0,0,1-4.39,1.61,18.06,18.06,0,0,0-3.16,1.05,5.41,5.41,0,0,0-2.82,3.7,16.88,16.88,0,0,0,0,3.28,18.86,18.86,0,0,1-.22,4.74,15.76,15.76,0,0,1-1.73,4.64,20.66,20.66,0,0,1-6.27,6.84A23.84,23.84,0,0,1,119,83.4a21.94,21.94,0,0,1-6.87.49c-.7-.06-1.46-.16-2.21-.3a16.42,16.42,0,0,1-8.53-4.16,14.22,14.22,0,0,1-3-3.93c-.1-.18-.17-.36-.26-.54l-.15-.33-.22-.55q-.2-.56-.36-1.14a5.67,5.67,0,0,0-.95-2.2,1.39,1.39,0,0,0-1.1-.4,2.18,2.18,0,0,0-1.07.51c-.62.51-1.17,1.11-1.76,1.66-.3.28-.59.54-.92.81-.51.43-1.16.91-1.77,1.33a24.82,24.82,0,0,1-8.28,3.7,35.21,35.21,0,0,1-8.8.81c-2.78-.05-5.48,0-8.46-.28a22,22,0,0,1-6.56-1.43A12.36,12.36,0,0,1,52,72.62l-.4-.68c-.06-.11-.12-.23-.18-.35a5.86,5.86,0,0,1-.28-.71,8.89,8.89,0,0,1-.33-1.43l-.19-1.39a3.47,3.47,0,0,0-.15-.66.65.65,0,0,0-.45-.47.79.79,0,0,0-.73.35,5.27,5.27,0,0,0-.5.7c-.3.48-.58,1-.88,1.42a10.29,10.29,0,0,1-1,1.25l-.27.27c-.07.08-.26.22-.38.33l-.21.17c-.07.06-.27.18-.4.27l-.88.57A17.15,17.15,0,0,1,37,74.41a25.58,25.58,0,0,1-7.4-.85A41.91,41.91,0,0,1,23,71.22a47.28,47.28,0,0,1-6.13-3.28A37.91,37.91,0,0,1,6.41,58,36.2,36.2,0,0,1,1.07,46.26,33.88,33.88,0,0,1,.3,33.37a17.91,17.91,0,0,1,1.8-5.28c.68-1.07,1.21-1.33,1.15.5A45.62,45.62,0,0,0,3.42,35a43.89,43.89,0,0,0,1.24,6.82,32.47,32.47,0,0,0,6.8,13A31.15,31.15,0,0,0,22.23,63a32.65,32.65,0,0,0,12.5,3.31,9.94,9.94,0,0,0,5.08-1.11c.3-.23.62-.39.9-.62l.2-.18.1-.09a1.13,1.13,0,0,0,.15-.14l1-1c.71-.95,1.45-2,2.18-3.17.37-.58.76-1,1.15-1.55a4.72,4.72,0,0,1,.58-.66l.58-.59A11.53,11.53,0,0,1,49.88,55a6,6,0,0,1,1.35-.35,8.38,8.38,0,0,1,1.93-.09,7.55,7.55,0,0,1,1.76.77,8.34,8.34,0,0,1,1.12.9,8.92,8.92,0,0,1,2.33,3.58,15.2,15.2,0,0,1,.73,3.51A17.83,17.83,0,0,0,59.67,67l.13.4a.68.68,0,0,0,.08.18c0,.07.09.18.12.22s.1.16.16.23a4.37,4.37,0,0,0,.35.4,3.59,3.59,0,0,0,1.06.69,10.46,10.46,0,0,0,2,.62,45.93,45.93,0,0,0,5.93.71l3.32.24c1.07.07,2.08.12,3,.13a19,19,0,0,0,5.32-.62A16,16,0,0,0,86,67.94a13,13,0,0,0,1.48-1.14l2.19-2A13.76,13.76,0,0,1,94,62a6.74,6.74,0,0,1,2.41-.51A6.27,6.27,0,0,1,99,62a11.14,11.14,0,0,1,1.12.61,6.46,6.46,0,0,1,.91.78,10.52,10.52,0,0,1,1.51,1.94,27.84,27.84,0,0,1,2.24,5.59c.09.23.2.51.3.69l.13.27.29.48a6.07,6.07,0,0,0,.64.83,7.31,7.31,0,0,0,3.67,2.16,14,14,0,0,0,5,.33,14.89,14.89,0,0,0,8.88-4.56,11.27,11.27,0,0,0,1.38-1.87c.22-.31.32-.65.51-1a8.59,8.59,0,0,0,.31-.92c.34-1.2.24-1.91,0-5,0-.43,0-.83,0-1.35l0-.74.09-.81a13.24,13.24,0,0,1,.89-3.32,13.72,13.72,0,0,1,3.63-5,12.15,12.15,0,0,1,4.61-2.57,12,12,0,0,1,3.26-.53,19.08,19.08,0,0,1,3.08.07,8.23,8.23,0,0,0,1.72,0,4.14,4.14,0,0,0,1.95-.82,8.76,8.76,0,0,0,2.6-3.36A16.27,16.27,0,0,0,149,36.26a22.29,22.29,0,0,0-.59-3.83,23.41,23.41,0,0,0-1.27-3.59A21.69,21.69,0,0,0,143,22.57a9.18,9.18,0,0,0-5.72-3A10.34,10.34,0,0,0,131.65,21a38.56,38.56,0,0,0-5.82,3.89l-2.94,2.33-1,.75c-.37.28-.72.58-1.1.84-.73.55-1.48,1.06-2.23,1.54a13.94,13.94,0,0,1-4.55,1.94,7.91,7.91,0,0,1-2.31.17,7.09,7.09,0,0,1-2.29-.67,5.74,5.74,0,0,1-1.86-1.63A7.61,7.61,0,0,1,106.55,28a17,17,0,0,1-.71-5.19l0-2.85,0-.51,0-.43c0-.29-.05-.55-.08-.83a9.57,9.57,0,0,0-.77-2.85,6.47,6.47,0,0,0-1.6-2.12,9.54,9.54,0,0,0-2.52-1.55,18.55,18.55,0,0,0-6.73-1.31,35.87,35.87,0,0,0-11.24,1.74,37.88,37.88,0,0,0-10.05,4.81,33.81,33.81,0,0,0-4.14,3.37,53.09,53.09,0,0,0-3.73,4.09L63,26.7l-1,1.22c-.27.32-.92,1.11-1.47,1.66l-.84.9-.91.79a12,12,0,0,1-1.9,1.35,9.36,9.36,0,0,1-4.26,1.13,11.7,11.7,0,0,1-1.75-.17,7.63,7.63,0,0,1-4.23-2.51,16.44,16.44,0,0,1-1.87-2.66c-.27-.46-.53-.93-.78-1.38l-.46-.92a40.77,40.77,0,0,0-3.86-6.28,44.29,44.29,0,0,0-4.79-5.54,25.86,25.86,0,0,0-6.29-4.6,14.62,14.62,0,0,0-6.07-1.59,13,13,0,0,0-6.86,1.56,18.42,18.42,0,0,0-5.53,4.75,32.37,32.37,0,0,0-3.79,6.1c-.83,1.7-1.74,2.95-2.64,4.82a30.89,30.89,0,0,1,2.46-8.81A25.54,25.54,0,0,1,8.91,11.8a20.85,20.85,0,0,1,2-2.26c.37-.36.73-.73,1.14-1.08l1.29-1a9.6,9.6,0,0,1,1.41-.89c.5-.27,1-.56,1.51-.79a16.93,16.93,0,0,1,3.3-1c.57-.11,1.14-.23,1.71-.3l1.71-.08a9.57,9.57,0,0,1,1.68.06c.55.05,1.11.1,1.65.18A27.91,27.91,0,0,1,37.22,9.3,10.58,10.58,0,0,1,39,10.85l1.3,1.44c1.72,1.52,3.38,2.95,4.95,4.39A40.21,40.21,0,0,1,49.81,21.54Z"/><path class="cls-4" d="M47.09,19.41c.75.82,1.47,1.67,2.13,2.51l.49.63.24.31.11.13.43.47a3.48,3.48,0,0,0,.9.76,1.5,1.5,0,0,0,1.1.12A2.7,2.7,0,0,0,54,22.93l.23-.43.69-1,1.6-2.4a43.37,43.37,0,0,1,8.63-9.62A41.15,41.15,0,0,1,77.14,2.88a32,32,0,0,1,8-1.62c4.28-.21,6.81.53,10.28,1.11a27.1,27.1,0,0,1,8.71,2.8,16.88,16.88,0,0,1,4,3,13.75,13.75,0,0,1,2.9,4.4,16.37,16.37,0,0,1,1.1,4.8c.06.76.09,1.54.08,2.22l-.07,1.06a18.8,18.8,0,0,0-.09,2.3A2.48,2.48,0,0,0,113,25a2.24,2.24,0,0,0,1.79.2,6.72,6.72,0,0,0,1.71-.77c.55-.33,1.08-.7,1.62-1.09l.87-.65,1.25-1c1.68-1.31,3.4-2.66,5.27-3.92a27.55,27.55,0,0,1,6.19-3.24,16.06,16.06,0,0,1,3.66-.82,13.06,13.06,0,0,1,3.89.22,14.52,14.52,0,0,1,6.65,3.58,23.31,23.31,0,0,1,4.36,5.63A29.77,29.77,0,0,1,153,29.64a27.2,27.2,0,0,1,.91,8.84,20.31,20.31,0,0,1-2.45,8.75,16.68,16.68,0,0,1-2.93,3.72,14.22,14.22,0,0,1-4,2.6,31.83,31.83,0,0,1-4.07,1.32,11.53,11.53,0,0,0-3,1.18,6.24,6.24,0,0,0-2,2,5.39,5.39,0,0,0-.86,2.57,34.41,34.41,0,0,0,.11,3.65,15.91,15.91,0,0,1-.41,4.55,17.11,17.11,0,0,1-4.53,7.75,22.29,22.29,0,0,1-7.18,4.84,24,24,0,0,1-4.13,1.32,21.87,21.87,0,0,1-4.34.47,22.87,22.87,0,0,1-4.32-.42,17.07,17.07,0,0,1-4.25-1.41A14.19,14.19,0,0,1,99,75l-.37-.81-.25-.65c-.15-.44-.29-.88-.42-1.32a5.92,5.92,0,0,0-1.14-2.51,1.55,1.55,0,0,0-1.29-.41,2.73,2.73,0,0,0-1.23.63c-.72.6-1.35,1.3-2,1.94-.35.32-.68.63-1.06.94s-1.14.89-1.73,1.31a24.69,24.69,0,0,1-3.84,2.17,25.52,25.52,0,0,1-8.55,2.13c-2.92.22-5.67.1-8.44.07a46.19,46.19,0,0,1-7.21-.58,16.66,16.66,0,0,1-3.8-1.15,11.85,11.85,0,0,1-3.52-2.4,10.55,10.55,0,0,1-1.39-1.66c-.21-.31-.39-.59-.54-.87s-.19-.33-.27-.51a8.08,8.08,0,0,1-.63-1.94c-.13-.65-.2-1.29-.28-1.91a6.25,6.25,0,0,0-.17-.91.86.86,0,0,0-.56-.69.87.87,0,0,0-.78.34,4.79,4.79,0,0,0-.54.73L48,68.43a12.27,12.27,0,0,1-1,1.37,7.48,7.48,0,0,1-1.36,1.27,18.48,18.48,0,0,1-3.27,1.76l-1.76.54a12.72,12.72,0,0,1-1.77.34A21.46,21.46,0,0,1,32,73.53a40.58,40.58,0,0,1-12-4.34,38,38,0,0,1-5.44-3.48,37.24,37.24,0,0,1-4.85-4.46A34.46,34.46,0,0,1,.89,38,34.34,34.34,0,0,1,2,30.42c.72-2.39,1.37-3.56,1.3-1.74a44.91,44.91,0,0,0,.18,6.39,44.36,44.36,0,0,0,1.26,6.8,32.4,32.4,0,0,0,6.81,13,31,31,0,0,0,10.76,8.09A32.32,32.32,0,0,0,34.8,66.18a9.76,9.76,0,0,0,5-1.13c.29-.23.62-.37.89-.62l.2-.18a2.44,2.44,0,0,0,.3-.28c.33-.34.65-.65,1-1l1.1-1.54,1.11-1.69c.38-.55.77-1,1.16-1.54s.77-.8,1.16-1.22a11.4,11.4,0,0,1,3.21-2.11,6.26,6.26,0,0,1,1.34-.32,9,9,0,0,1,1.92-.08,8,8,0,0,1,1.77.76,8.32,8.32,0,0,1,1.13.89,8.78,8.78,0,0,1,2.36,3.59,15.29,15.29,0,0,1,.73,3.55,17.51,17.51,0,0,0,.59,3.68l.13.4a.79.79,0,0,0,.07.16c0,.07.09.19.12.22l.15.22a4.26,4.26,0,0,0,.34.38,3.57,3.57,0,0,0,1,.68,10.44,10.44,0,0,0,2,.62,46.33,46.33,0,0,0,5.93.71l3.32.24c1.07.07,2.07.12,3,.13a18.85,18.85,0,0,0,5.3-.62A15.88,15.88,0,0,0,86,67.84c.19-.13.38-.25.56-.4l.4-.31c.18-.14.38-.32.56-.48l2.2-2a13.53,13.53,0,0,1,4.38-2.81,6.88,6.88,0,0,1,2.43-.47,6.34,6.34,0,0,1,2.62.59,12.63,12.63,0,0,1,1.12.61,8.86,8.86,0,0,1,.9.8,11.16,11.16,0,0,1,1.52,2A31.17,31.17,0,0,1,104.95,71l.15.36.13.26.13.27.29.47a6.54,6.54,0,0,0,.64.81,7.27,7.27,0,0,0,3.65,2.12,13.8,13.8,0,0,0,5,.3A14.88,14.88,0,0,0,119.76,74a14.71,14.71,0,0,0,4-3,9.46,9.46,0,0,0,2.16-3.71c.32-1.18.22-1.88,0-5.07,0-.42,0-.85,0-1.37a14.05,14.05,0,0,1,1.06-4.92,13.79,13.79,0,0,1,3.69-5,12.32,12.32,0,0,1,4.65-2.55,12.19,12.19,0,0,1,3.25-.51,18.13,18.13,0,0,1,3,.08,8.22,8.22,0,0,0,1.67.06,4,4,0,0,0,1.91-.79,8.7,8.7,0,0,0,2.58-3.31,16.08,16.08,0,0,0,1.17-7.61,22.22,22.22,0,0,0-.58-3.82A23.32,23.32,0,0,0,147,28.92a21.64,21.64,0,0,0-4.13-6.26,9.12,9.12,0,0,0-5.65-3,10.18,10.18,0,0,0-5.54,1.38,38.24,38.24,0,0,0-5.82,3.88L123,27.27,122,28c-.37.28-.73.58-1.11.85-.74.56-1.5,1.07-2.25,1.56a13.94,13.94,0,0,1-4.59,1.95,8,8,0,0,1-2.33.16,7.21,7.21,0,0,1-2.3-.68,5.83,5.83,0,0,1-1.87-1.63,7.66,7.66,0,0,1-1.08-2.13,16.77,16.77,0,0,1-.73-5.21l0-2.87,0-.52,0-.42c0-.28-.05-.55-.08-.82a9.49,9.49,0,0,0-.76-2.82,6.37,6.37,0,0,0-1.57-2.09,9.42,9.42,0,0,0-2.49-1.54,18.49,18.49,0,0,0-6.68-1.31,35.79,35.79,0,0,0-11.22,1.73,37.88,37.88,0,0,0-10,4.79,33.35,33.35,0,0,0-4.13,3.36A52.35,52.35,0,0,0,65,24.42l-1.87,2.29c-.7.83-1.15,1.46-2.46,2.87l-.85.91c-.3.28-.61.53-.91.8A11.77,11.77,0,0,1,57,32.65a9.4,9.4,0,0,1-4.28,1.17A13.84,13.84,0,0,1,51,33.67a9.22,9.22,0,0,1-1.64-.53,8.18,8.18,0,0,1-2.64-2,15.63,15.63,0,0,1-1.9-2.67c-.28-.46-.53-.93-.79-1.39s-.32-.62-.48-.94a40.85,40.85,0,0,0-3.85-6.27,44.31,44.31,0,0,0-4.78-5.54,25.88,25.88,0,0,0-6.26-4.6,14.63,14.63,0,0,0-6-1.6A12.89,12.89,0,0,0,15.77,9.7a18.25,18.25,0,0,0-5.52,4.71,32.13,32.13,0,0,0-3.79,6.08c-.83,1.68-1.74,2.94-2.64,4.8A29,29,0,0,1,6.13,17,22.71,22.71,0,0,1,12,9a23.29,23.29,0,0,1,2.32-1.63A15.85,15.85,0,0,1,17,6.1l1.43-.48c.48-.14,1-.2,1.49-.29a12.58,12.58,0,0,1,1.5-.2l1.51,0A22.93,22.93,0,0,1,33.85,8.34a16,16,0,0,1,3.33,2.72c1.82,1.39,3.52,2.7,5.17,4,.82.66,1.64,1.35,2.41,2S46.35,18.6,47.09,19.41Z"/><path class="cls-5" d="M42.21,16.72a42.38,42.38,0,0,1,4.52,4.36c.68.79,1.35,1.59,2,2.39l.64.78c.19.23.38.45.58.67a3.46,3.46,0,0,0,1.35,1,2.42,2.42,0,0,0,1.63,0,3.21,3.21,0,0,0,1.32-.94,8.59,8.59,0,0,0,.93-1.24l.2-.32.35-.51.78-1.16c.53-.79,1.07-1.6,1.65-2.42A45.51,45.51,0,0,1,62,14.41a36,36,0,0,1,10.57-7.9,31.05,31.05,0,0,1,7.53-2.46,25.18,25.18,0,0,1,5.21-.34c1.54,0,3,.15,4.63.21a32.36,32.36,0,0,1,9.77,1.5,19.85,19.85,0,0,1,4.56,2.15A13.56,13.56,0,0,1,108,11.13a12,12,0,0,1,1.89,4.72,16.93,16.93,0,0,1,.25,2.41c0,.4,0,.79,0,1.18s0,.65,0,1c-.06,1.27-.2,2.6-.17,4a7,7,0,0,0,.3,2A3,3,0,0,0,111.46,28a3.17,3.17,0,0,0,2.27.38,7.6,7.6,0,0,0,2.22-.82,31.24,31.24,0,0,0,4.11-2.74,90.92,90.92,0,0,1,8.63-6.19,20.72,20.72,0,0,1,4.91-2.13,11.29,11.29,0,0,1,5.33-.16c3.56.83,6.42,3.54,8.46,6.61a26.19,26.19,0,0,1,3.31,7.34,25.14,25.14,0,0,1,.81,7.88,22.33,22.33,0,0,1-.59,3.89,17,17,0,0,1-1.41,3.65,12.51,12.51,0,0,1-5.46,5.37c-2.33,1.15-5,1.39-7.21,2.51a8.64,8.64,0,0,0-4.45,5.72c-.5,2.46.24,5-.1,7.52a11.37,11.37,0,0,1-1,3.63,14.62,14.62,0,0,1-2,3.21,20.32,20.32,0,0,1-13,7.18,19.58,19.58,0,0,1-7.58-.52,12.67,12.67,0,0,1-6.44-4.06,12.86,12.86,0,0,1-2-3.33c-.49-1.18-.83-2.41-1.22-3.62a7.89,7.89,0,0,0-.76-1.75,2.48,2.48,0,0,0-1.48-1.13,2.29,2.29,0,0,0-1.85.37,9.14,9.14,0,0,0-1.5,1.23c-.93.9-1.83,1.85-2.8,2.71a25.06,25.06,0,0,1-3.21,2.44,22.59,22.59,0,0,1-7.67,3,47.9,47.9,0,0,1-9.69.53A42.47,42.47,0,0,1,60.49,76a11.38,11.38,0,0,1-4.56-2.2,9.58,9.58,0,0,1-1.78-1.9,11.29,11.29,0,0,1-.66-1.05,8.37,8.37,0,0,1-.43-.91,14.15,14.15,0,0,1-.88-3.76c-.08-.62-.13-1.24-.23-1.84a3.92,3.92,0,0,0-.24-.88,1,1,0,0,0-.64-.62,1,1,0,0,0-.85.25,3.42,3.42,0,0,0-.63.69c-.37.51-.69,1-1,1.56a20.68,20.68,0,0,1-2.07,2.91,7.77,7.77,0,0,1-.59.63l-.31.3-.37.3-.37.3-.53.35-.53.35-.57.28-1.14.55a11.48,11.48,0,0,1-1.2.4,12.66,12.66,0,0,1-2.45.53,23.07,23.07,0,0,1-9.55-1,43,43,0,0,1-8.63-3.68A40.14,40.14,0,0,1,14.7,63.7a35,35,0,0,1-5.23-5.36A30.83,30.83,0,0,1,3.35,45.42c-.14-.86-.42-2.36-.61-4.09A34.9,34.9,0,0,1,2.56,36c.15-3.44.89-5.86.92-4a45.84,45.84,0,0,0,.8,6.2,44,44,0,0,0,1.84,6.5,31.69,31.69,0,0,0,7.79,12,30.27,30.27,0,0,0,5.31,4.1,36.21,36.21,0,0,0,5.94,2.85,34.09,34.09,0,0,0,6.21,1.76,16.58,16.58,0,0,0,5.73.12,7.81,7.81,0,0,0,2.2-.73l.24-.11.2-.16.41-.28a1.59,1.59,0,0,0,.39-.3l.18-.16,0,0,.12-.12.25-.25.5-.51.25-.26c.09-.1.18-.25.27-.38.37-.53.74-1,1.12-1.61l1.13-1.75,1.19-1.56a11.09,11.09,0,0,1,4.15-3A4.82,4.82,0,0,1,51.24,54a14,14,0,0,1,2.08-.06,12.48,12.48,0,0,1,1.94.72,7.87,7.87,0,0,1,1.3.86,8.05,8.05,0,0,1,2.7,4.23,23.56,23.56,0,0,1,.65,4.21c.06.74.18,1.41.3,2.07l.29.9a.68.68,0,0,0,.09.22l.06.12a2.06,2.06,0,0,0,.56.63,4.2,4.2,0,0,0,1.15.56,13.34,13.34,0,0,0,2.3.53c1.84.29,4.12.44,6.49.6,4.81.37,8.09.45,11.37-.85a15.82,15.82,0,0,0,2.36-1.17c.39-.22.75-.49,1.13-.75l.42-.32c.21-.16.42-.36.63-.53L88.3,64.8a16.61,16.61,0,0,1,4.93-3.54,12.32,12.32,0,0,1,1.19-.42,10.28,10.28,0,0,1,1.21-.22,8.34,8.34,0,0,1,2.68.2,7.37,7.37,0,0,1,1.33.53c.22.1.41.2.6.31a2.66,2.66,0,0,1,.55.34,9.41,9.41,0,0,1,1.81,1.8,11.75,11.75,0,0,1,1.46,2.54c.44,1,.76,2.1,1.13,3.16a15.24,15.24,0,0,0,.58,1.6l.17.34a1.69,1.69,0,0,0,.13.23,7.64,7.64,0,0,0,.54.81A6.55,6.55,0,0,0,108,73.7c2,1.37,6,1.72,8.91.78A13.41,13.41,0,0,0,124.4,69a7.93,7.93,0,0,0,.82-1.73,5.37,5.37,0,0,0,.21-1.53c0-.58-.07-1.38-.2-2.77a17.87,17.87,0,0,1,.33-5.81c.17-.61.38-1.22.61-1.81s.53-1.12.82-1.65.62-1,.95-1.43.72-.87,1.08-1.29a14.27,14.27,0,0,1,5.42-3.62,17.09,17.09,0,0,1,6.38-1h1.23l.83,0a5.25,5.25,0,0,0,1.25-.06,3.14,3.14,0,0,0,1.42-.9,8,8,0,0,0,1.92-3.32,17.68,17.68,0,0,0,.44-7.45,18.1,18.1,0,0,0-.84-3.57,21.92,21.92,0,0,0-1.47-3.38,17.45,17.45,0,0,0-4.33-5.46,8.12,8.12,0,0,0-2.53-1.43,6.13,6.13,0,0,0-2.62-.27,12.66,12.66,0,0,0-5,1.85,48.56,48.56,0,0,0-5.36,3.79l-2.92,2.32a34.93,34.93,0,0,1-4.59,3.19,13.18,13.18,0,0,1-4.65,1.66,7.59,7.59,0,0,1-4.6-.73,6.9,6.9,0,0,1-2.12-1.82,8.67,8.67,0,0,1-1.24-2.37,17.54,17.54,0,0,1-.8-6v-2.5l0-.49q-.05-.87-.17-1.63a7.35,7.35,0,0,0-.86-2.53,7.65,7.65,0,0,0-4.36-3.11,20,20,0,0,0-7-.89A37.37,37.37,0,0,0,72,18.63a34.86,34.86,0,0,0-3.84,3.5c-1.21,1.3-2.38,2.71-3.61,4.26l-1,1.19-1,1.25c-.18.21-.52.65-.81,1l-.92,1a19.86,19.86,0,0,1-1.95,1.79,12,12,0,0,1-1.05.72,5.79,5.79,0,0,1-1.09.59c-.38.16-.75.34-1.13.48l-1.18.3a6.87,6.87,0,0,1-1.2.14l-.6,0-.6,0a8.87,8.87,0,0,1-1.2-.1,11.31,11.31,0,0,1-1.16-.31,10.3,10.3,0,0,1-5.52-4.75c-1.55-2.5-1.75-3.18-2.43-4.34s-1.22-2.08-1.89-3.06-1.41-2-2.15-2.91a40.84,40.84,0,0,0-4.87-5.22,21.92,21.92,0,0,0-6.31-4,12.41,12.41,0,0,0-12,1.47c-3.73,2.7-6.22,6.91-8,11.1-.72,1.68-1.59,2.93-2.39,4.8a28,28,0,0,1,1.73-7.64,23.74,23.74,0,0,1,4.13-7,17,17,0,0,1,7.68-5.23,17,17,0,0,1,10.4.21,13.64,13.64,0,0,1,3.67,2.07A68.69,68.69,0,0,1,42.21,16.72Z"/><path class="cls-6" d="M40,18.69a51,51,0,0,1,5.87,5.58c.82.91,1.61,1.87,2.38,2.68A5,5,0,0,0,51,28.68a4.25,4.25,0,0,0,3.35-1,13.6,13.6,0,0,0,2.45-3,53.28,53.28,0,0,1,7.75-9.94,24.86,24.86,0,0,1,6.29-4.22c3.6-1.57,6-1.65,9-2.33A41.33,41.33,0,0,1,91.55,7a23.75,23.75,0,0,1,10.71,2.84,10.09,10.09,0,0,1,3.64,3.52,10.52,10.52,0,0,1,1.3,4.81c0,.44,0,.88,0,1.33v.84l0,.91c0,1.22-.08,2.46,0,3.64a11.42,11.42,0,0,0,.65,3.32A4.88,4.88,0,0,0,110,30.82a5.5,5.5,0,0,0,2.26.62,7.85,7.85,0,0,0,2.29-.29A16.12,16.12,0,0,0,119,29c.73-.48,1.45-1,2.17-1.57L123,26c1.07-.84,2.11-1.68,3.16-2.47a32.34,32.34,0,0,1,6.44-4,9.26,9.26,0,0,1,6.46-.65,11.1,11.1,0,0,1,5.21,3.78,22,22,0,0,1,3.37,5.93A21.35,21.35,0,0,1,149.06,35a20.69,20.69,0,0,1-.46,6.25,12.53,12.53,0,0,1-2.5,5.1,9.08,9.08,0,0,1-4.36,3c-.9.32-1.9.56-3,.87a16,16,0,0,0-3.6,1.42,10.49,10.49,0,0,0-3.19,2.74,10.65,10.65,0,0,0-2,3.74,12.71,12.71,0,0,0-.42,4c0,1.21.14,2.23.13,3.16a9.48,9.48,0,0,1-1.36,5,14.25,14.25,0,0,1-3.71,4.21,17.83,17.83,0,0,1-5.2,2.84,16.5,16.5,0,0,1-6,1,14.39,14.39,0,0,1-6-1.33,9.39,9.39,0,0,1-4.2-4.1l-.19-.4c-.09-.21-.19-.41-.27-.63l-.47-1.29c-.3-.87-.6-1.74-1-2.5-.73-1.52-1.38-2.88-2.8-3.73a3.89,3.89,0,0,0-2.32-.54,5.48,5.48,0,0,0-2.11.75,19.15,19.15,0,0,0-3.79,3c-.63.59-1.24,1.22-1.88,1.75s-.9.73-1.37,1.09a20.6,20.6,0,0,1-2.86,1.72,20,20,0,0,1-6.3,1.89,47.89,47.89,0,0,1-6.91.27c-2.39,0-4.75,0-7-.25a12.68,12.68,0,0,1-6-1.82A7.27,7.27,0,0,1,56,70l-.21-.36-.23-.52A10.86,10.86,0,0,1,55.25,68l-.56-2.3c-.38-1.48-.73-2.65-1-3.77-.14-.56-.27-1.1-.46-1.63A2,2,0,0,0,52,59a1.61,1.61,0,0,0-1.17.22,4.48,4.48,0,0,0-.88.73c-.52.55-1,1.19-1.58,1.87L46.58,64c-.68.82-1.37,1.74-2.13,2.49a5.72,5.72,0,0,1-.64.57,6.59,6.59,0,0,1-.67.52l-.66.45-.76.38c-.26.13-.52.29-.81.4l-.9.3a11.59,11.59,0,0,1-2,.47,22.22,22.22,0,0,1-9.38-1,39.45,39.45,0,0,1-8.88-4,24.09,24.09,0,0,1-5.87-4.93c-.5-.65-2-2.22-3.65-4.46a36,36,0,0,1-4.47-8.15,33.46,33.46,0,0,1-2-7.86c-.22-2-.15-2.89,0-2a42.6,42.6,0,0,0,1.33,4.51c.49,1.39,1,2.88,1.92,4.91a31.74,31.74,0,0,0,8.24,11.13A33.08,33.08,0,0,0,26.18,64,32.36,32.36,0,0,0,32,65.49a15.17,15.17,0,0,0,5.35,0c.39-.09.74-.22,1.11-.31s.64-.31,1-.43.54-.38.81-.54a2,2,0,0,0,.37-.3l.18-.15.47-.48a16.34,16.34,0,0,0,2.1-2.76c.37-.56.73-1.17,1.12-1.71s.78-1,1.18-1.52a11.06,11.06,0,0,1,4.12-3A4.81,4.81,0,0,1,51.24,54a14,14,0,0,1,2.09-.06,12.3,12.3,0,0,1,1.95.73,7.9,7.9,0,0,1,1.31.87,8.1,8.1,0,0,1,2.72,4.37,27.73,27.73,0,0,1,.63,4.31,12.58,12.58,0,0,0,.35,2.06l.15.46.07.23,0,.11,0,0,.13.24a2.36,2.36,0,0,0,.57.58,4.56,4.56,0,0,0,1.26.58A15.74,15.74,0,0,0,65,69c1.95.28,4.33.41,6.77.58,4.83.37,8.07.32,11.39-1.18a14.17,14.17,0,0,0,2.35-1.3c.19-.13.38-.25.57-.4l.52-.41c.21-.19.43-.36.64-.56.83-.78,1.67-1.55,2.5-2.29a11.54,11.54,0,0,1,4.93-2.7,6.5,6.5,0,0,1,2.55-.14,10.81,10.81,0,0,1,1.38.25,12.75,12.75,0,0,1,1.27.56,8.6,8.6,0,0,1,3.66,3.76c.12.22.24.43.36.66l.31.75a15.91,15.91,0,0,1,.58,1.58l.54,1.63c.09.27.17.55.28.81l.16.39.13.27A6.56,6.56,0,0,0,107,72.89,6.44,6.44,0,0,0,108.51,74a8.14,8.14,0,0,0,2,.71,13,13,0,0,0,7.17-.46,15,15,0,0,0,4.25-2.38,11.37,11.37,0,0,0,2.84-3.38,7.28,7.28,0,0,0,.62-1.66,6.76,6.76,0,0,0,.07-1.67c0-.74-.2-1.83-.27-3.57a15.33,15.33,0,0,1,1.08-6.43,14.84,14.84,0,0,1,4.18-5.57A14.56,14.56,0,0,1,136,46.77a20.16,20.16,0,0,1,3.6-.59,17.84,17.84,0,0,1,1.86-.05c1.75-.09,2.28-.57,2.83-1.28a8.09,8.09,0,0,0,.86-1.58,15.66,15.66,0,0,0,1-3.49,21.43,21.43,0,0,0-2.13-13A14.24,14.24,0,0,0,140.36,22a6.13,6.13,0,0,0-2.28-1.19,5.43,5.43,0,0,0-2.6-.06,14.75,14.75,0,0,0-4.88,2.11,55.11,55.11,0,0,0-5.18,3.76l-3,2.4a30.56,30.56,0,0,1-4.47,3,12.86,12.86,0,0,1-4.5,1.49,7.67,7.67,0,0,1-4.45-.77,6.93,6.93,0,0,1-2.18-1.9,9,9,0,0,1-1.26-2.48,19,19,0,0,1-.75-6.32V20.32l0-.68,0-.45a12.59,12.59,0,0,0-.2-1.63,6.78,6.78,0,0,0-.94-2.49,6.43,6.43,0,0,0-1.85-1.77A11.19,11.19,0,0,0,98.85,12a21.6,21.6,0,0,0-7.36-.68,37.06,37.06,0,0,0-10.84,2.52,33.65,33.65,0,0,0-9.25,5.35,48.89,48.89,0,0,0-7.38,8L63,28.5l-.6.73c-.27.34-.6.69-.91,1l-.93,1c-.31.33-.66.6-1,.89a12,12,0,0,1-2.1,1.52A10.29,10.29,0,0,1,52.78,35a9.13,9.13,0,0,1-4.67-1.1,10.25,10.25,0,0,1-2.88-2.45,25.66,25.66,0,0,1-2.1-3.18c-.38-.64-.46-.82-.63-1.14L42,26.26c-.3-.56-.6-1.1-.92-1.62a46.85,46.85,0,0,0-4.2-5.87,38.59,38.59,0,0,0-5-5.08,20.35,20.35,0,0,0-6.43-3.75,12.89,12.89,0,0,0-5.87-.45,13.4,13.4,0,0,0-5.87,2.83c-3.54,2.9-5.87,7.16-7.57,11.38-.67,1.68-1.51,3-2.27,4.82A24,24,0,0,1,8.66,15.38a20.48,20.48,0,0,1,5.62-5.22,15.7,15.7,0,0,1,9.18-2.3c2,.21,3.4,1.47,4.52,2.07a10,10,0,0,0-1.46-.49l-.76-.21c-.28-.08-.14,0,.31.11a22.61,22.61,0,0,1,5.2,2.26,36.88,36.88,0,0,1,6,4.48C38.93,17.54,40,18.69,40,18.69Z"/></g></g></g></g></g></svg>